<svg xmlns="http://www.w3.org/2000/svg" xmlns:xlink="http://www.w3.org/1999/xlink" width="500" zoomAndPan="magnify" viewBox="0 0 375 374.999991" height="500" preserveAspectRatio="xMidYMid meet" version="1.0"><defs><g/><clipPath id="7b95206a99"><path d="M 235.632812 112.722656 L 273.882812 112.722656 L 273.882812 258.972656 L 235.632812 258.972656 Z M 235.632812 112.722656 " clip-rule="nonzero"/></clipPath><clipPath id="c4e6106f2e"><path d="M 273.308594 112.722656 L 273.453125 112.722656 L 273.453125 226.085938 L 273.308594 226.085938 Z M 273.308594 226.085938 L 273.882812 226.085938 L 273.882812 258.972656 L 273.308594 258.972656 Z M 273.308594 226.085938 " clip-rule="nonzero"/></clipPath><linearGradient x1="341.599968" gradientTransform="matrix(0.183233, 0, 0, 0.182812, 210.715499, 112.723087)" y1="400" x2="344.742544" gradientUnits="userSpaceOnUse" y2="400" id="a71aa37eca"><stop stop-opacity="1" stop-color="rgb(33.299255%, 14.498901%, 0%)" offset="0"/><stop stop-opacity="1" stop-color="rgb(33.299255%, 14.498901%, 0%)" offset="0.5"/><stop stop-opacity="1" stop-color="rgb(33.460999%, 14.660645%, 0.0579834%)" offset="0.625"/><stop stop-opacity="1" stop-color="rgb(33.721924%, 14.92157%, 0.152588%)" offset="0.6875"/><stop stop-opacity="1" stop-color="rgb(33.918762%, 15.118408%, 0.224304%)" offset="0.75"/><stop stop-opacity="1" stop-color="rgb(34.115601%, 15.315247%, 0.296021%)" offset="0.8125"/><stop stop-opacity="1" stop-color="rgb(34.312439%, 15.513611%, 0.367737%)" offset="0.875"/><stop stop-opacity="1" stop-color="rgb(34.510803%, 15.710449%, 0.439453%)" offset="0.9375"/><stop stop-opacity="1" stop-color="rgb(34.707642%, 15.907288%, 0.511169%)" offset="1"/></linearGradient><clipPath id="faa476412c"><path d="M 0 112.722656 L 161.25 112.722656 L 161.25 261.972656 L 0 261.972656 Z M 0 112.722656 " clip-rule="nonzero"/></clipPath><clipPath id="b2be608bdf"><path d="M 80 112.722656 L 161 112.722656 L 161 261.972656 L 80 261.972656 Z M 80 112.722656 " clip-rule="nonzero"/></clipPath><clipPath id="2200251bb0"><path d="M 80.039062 206.933594 L 99.546875 206.933594 L 80.484375 150.769531 L 80.039062 152.117188 L 80.039062 112.722656 L 104.703125 112.722656 L 160.984375 261.972656 L 117.257812 261.972656 L 109.863281 240.496094 L 80.039062 240.496094 Z M 80.039062 206.933594 " clip-rule="nonzero"/></clipPath><linearGradient x1="397.099996" gradientTransform="matrix(0.201501, 0, 0, 0.201091, 0.0247162, 106.911557)" y1="400" x2="798.799961" gradientUnits="userSpaceOnUse" y2="400" id="9f9c472ada"><stop stop-opacity="1" stop-color="rgb(33.299255%, 14.498901%, 0%)" offset="0"/><stop stop-opacity="1" stop-color="rgb(33.764648%, 14.964294%, 0.169373%)" offset="0.00390625"/><stop stop-opacity="1" stop-color="rgb(34.231567%, 15.431213%, 0.338745%)" offset="0.0078125"/><stop stop-opacity="1" stop-color="rgb(35.494995%, 16.694641%, 0.798035%)" offset="0.0117188"/><stop stop-opacity="1" stop-color="rgb(36.758423%, 17.959595%, 1.257324%)" offset="0.015625"/><stop stop-opacity="1" stop-color="rgb(37.986755%, 19.181824%, 1.696777%)" offset="0.0195312"/><stop stop-opacity="1" stop-color="rgb(39.215088%, 20.404053%, 2.137756%)" offset="0.0234375"/><stop stop-opacity="1" stop-color="rgb(40.29541%, 21.452332%, 2.497864%)" offset="0.0273437"/><stop stop-opacity="1" stop-color="rgb(41.375732%, 22.502136%, 2.857971%)" offset="0.03125"/><stop stop-opacity="1" stop-color="rgb(42.454529%, 23.551941%, 3.218079%)" offset="0.0351562"/><stop stop-opacity="1" stop-color="rgb(43.534851%, 24.601746%, 3.578186%)" offset="0.0390625"/><stop stop-opacity="1" stop-color="rgb(44.615173%, 25.650024%, 3.938293%)" offset="0.0429687"/><stop stop-opacity="1" stop-color="rgb(45.695496%, 26.699829%, 4.298401%)" offset="0.046875"/><stop stop-opacity="1" stop-color="rgb(46.774292%, 27.748108%, 4.658508%)" offset="0.0507812"/><stop stop-opacity="1" stop-color="rgb(47.854614%, 28.797913%, 5.018616%)" offset="0.0546875"/><stop stop-opacity="1" stop-color="rgb(48.934937%, 29.847717%, 5.377197%)" offset="0.0585938"/><stop stop-opacity="1" stop-color="rgb(50.015259%, 30.897522%, 5.737305%)" offset="0.0625"/><stop stop-opacity="1" stop-color="rgb(51.094055%, 31.945801%, 6.097412%)" offset="0.0664062"/><stop stop-opacity="1" stop-color="rgb(52.174377%, 32.995605%, 6.45752%)" offset="0.0703125"/><stop stop-opacity="1" stop-color="rgb(53.100586%, 33.911133%, 6.770325%)" offset="0.0742188"/><stop stop-opacity="1" stop-color="rgb(54.026794%, 34.82666%, 7.084656%)" offset="0.078125"/><stop stop-opacity="1" stop-color="rgb(54.875183%, 35.675049%, 7.373047%)" offset="0.0820312"/><stop stop-opacity="1" stop-color="rgb(55.725098%, 36.524963%, 7.662964%)" offset="0.0859375"/><stop stop-opacity="1" stop-color="rgb(56.573486%, 37.373352%, 7.952881%)" offset="0.0898438"/><stop stop-opacity="1" stop-color="rgb(57.421875%, 38.221741%, 8.242798%)" offset="0.09375"/><stop stop-opacity="1" stop-color="rgb(58.270264%, 39.070129%, 8.531189%)" offset="0.0976562"/><stop stop-opacity="1" stop-color="rgb(59.118652%, 39.918518%, 8.821106%)" offset="0.101562"/><stop stop-opacity="1" stop-color="rgb(59.967041%, 40.766907%, 9.111023%)" offset="0.105469"/><stop stop-opacity="1" stop-color="rgb(60.81543%, 41.615295%, 9.40094%)" offset="0.109375"/><stop stop-opacity="1" stop-color="rgb(61.663818%, 42.463684%, 9.690857%)" offset="0.113281"/><stop stop-opacity="1" stop-color="rgb(62.513733%, 43.313599%, 9.980774%)" offset="0.117188"/><stop stop-opacity="1" stop-color="rgb(63.362122%, 44.161987%, 10.269165%)" offset="0.121094"/><stop stop-opacity="1" stop-color="rgb(64.21051%, 45.010376%, 10.559082%)" offset="0.125"/><stop stop-opacity="1" stop-color="rgb(65.019226%, 45.812988%, 10.836792%)" offset="0.128906"/><stop stop-opacity="1" stop-color="rgb(65.827942%, 46.615601%, 11.116028%)" offset="0.132812"/><stop stop-opacity="1" stop-color="rgb(66.508484%, 47.271729%, 11.357117%)" offset="0.136719"/><stop stop-opacity="1" stop-color="rgb(67.190552%, 47.929382%, 11.599731%)" offset="0.140625"/><stop stop-opacity="1" stop-color="rgb(67.87262%, 48.587036%, 11.84082%)" offset="0.144531"/><stop stop-opacity="1" stop-color="rgb(68.554688%, 49.24469%, 12.083435%)" offset="0.148437"/><stop stop-opacity="1" stop-color="rgb(69.236755%, 49.900818%, 12.324524%)" offset="0.152344"/><stop stop-opacity="1" stop-color="rgb(69.918823%, 50.558472%, 12.565613%)" offset="0.15625"/><stop stop-opacity="1" stop-color="rgb(70.600891%, 51.216125%, 12.806702%)" offset="0.160156"/><stop stop-opacity="1" stop-color="rgb(71.282959%, 51.873779%, 13.049316%)" offset="0.164062"/><stop stop-opacity="1" stop-color="rgb(71.965027%, 52.529907%, 13.290405%)" offset="0.167969"/><stop stop-opacity="1" stop-color="rgb(72.647095%, 53.187561%, 13.53302%)" offset="0.171875"/><stop stop-opacity="1" stop-color="rgb(73.329163%, 53.843689%, 13.774109%)" offset="0.175781"/><stop stop-opacity="1" stop-color="rgb(74.01123%, 54.501343%, 14.016724%)" offset="0.179687"/><stop stop-opacity="1" stop-color="rgb(74.693298%, 55.158997%, 14.257812%)" offset="0.183594"/><stop stop-opacity="1" stop-color="rgb(75.375366%, 55.81665%, 14.500427%)" offset="0.1875"/><stop stop-opacity="1" stop-color="rgb(76.019287%, 56.439209%, 14.724731%)" offset="0.191406"/><stop stop-opacity="1" stop-color="rgb(76.663208%, 57.063293%, 14.950562%)" offset="0.195312"/><stop stop-opacity="1" stop-color="rgb(77.130127%, 57.530212%, 15.097046%)" offset="0.199219"/><stop stop-opacity="1" stop-color="rgb(77.597046%, 57.997131%, 15.24353%)" offset="0.203125"/><stop stop-opacity="1" stop-color="rgb(78.062439%, 58.462524%, 15.390015%)" offset="0.207031"/><stop stop-opacity="1" stop-color="rgb(78.529358%, 58.929443%, 15.536499%)" offset="0.210938"/><stop stop-opacity="1" stop-color="rgb(78.996277%, 59.396362%, 15.682983%)" offset="0.214844"/><stop stop-opacity="1" stop-color="rgb(79.463196%, 59.863281%, 15.829468%)" offset="0.21875"/><stop stop-opacity="1" stop-color="rgb(79.928589%, 60.328674%, 15.975952%)" offset="0.222656"/><stop stop-opacity="1" stop-color="rgb(80.395508%, 60.795593%, 16.122437%)" offset="0.226562"/><stop stop-opacity="1" stop-color="rgb(80.862427%, 61.262512%, 16.268921%)" offset="0.230469"/><stop stop-opacity="1" stop-color="rgb(81.329346%, 61.729431%, 16.415405%)" offset="0.234375"/><stop stop-opacity="1" stop-color="rgb(81.796265%, 62.194824%, 16.56189%)" offset="0.238281"/><stop stop-opacity="1" stop-color="rgb(82.263184%, 62.661743%, 16.708374%)" offset="0.242187"/><stop stop-opacity="1" stop-color="rgb(82.728577%, 63.128662%, 16.854858%)" offset="0.246094"/><stop stop-opacity="1" stop-color="rgb(83.195496%, 63.595581%, 17.001343%)" offset="0.25"/><stop stop-opacity="1" stop-color="rgb(83.662415%, 64.0625%, 17.147827%)" offset="0.253906"/><stop stop-opacity="1" stop-color="rgb(84.129333%, 64.529419%, 17.294312%)" offset="0.257812"/><stop stop-opacity="1" stop-color="rgb(84.594727%, 64.994812%, 17.440796%)" offset="0.261719"/><stop stop-opacity="1" stop-color="rgb(85.061646%, 65.461731%, 17.58728%)" offset="0.265625"/><stop stop-opacity="1" stop-color="rgb(85.38208%, 65.782166%, 17.701721%)" offset="0.269531"/><stop stop-opacity="1" stop-color="rgb(85.704041%, 66.104126%, 17.816162%)" offset="0.273438"/><stop stop-opacity="1" stop-color="rgb(86.019897%, 66.419983%, 17.929077%)" offset="0.277344"/><stop stop-opacity="1" stop-color="rgb(86.335754%, 66.73584%, 18.041992%)" offset="0.28125"/><stop stop-opacity="1" stop-color="rgb(86.650085%, 67.050171%, 18.154907%)" offset="0.285156"/><stop stop-opacity="1" stop-color="rgb(86.965942%, 67.366028%, 18.267822%)" offset="0.289063"/><stop stop-opacity="1" stop-color="rgb(87.280273%, 67.680359%, 18.380737%)" offset="0.292969"/><stop stop-opacity="1" stop-color="rgb(87.59613%, 67.996216%, 18.493652%)" offset="0.296875"/><stop stop-opacity="1" stop-color="rgb(87.911987%, 68.310547%, 18.606567%)" offset="0.300781"/><stop stop-opacity="1" stop-color="rgb(88.227844%, 68.626404%, 18.719482%)" offset="0.304687"/><stop stop-opacity="1" stop-color="rgb(88.542175%, 68.942261%, 18.832397%)" offset="0.308594"/><stop stop-opacity="1" stop-color="rgb(88.858032%, 69.258118%, 18.945312%)" offset="0.3125"/><stop stop-opacity="1" stop-color="rgb(89.172363%, 69.572449%, 19.058228%)" offset="0.316406"/><stop stop-opacity="1" stop-color="rgb(89.48822%, 69.888306%, 19.171143%)" offset="0.320312"/><stop stop-opacity="1" stop-color="rgb(89.802551%, 70.202637%, 19.284058%)" offset="0.324219"/><stop stop-opacity="1" stop-color="rgb(90.118408%, 70.518494%, 19.396973%)" offset="0.328125"/><stop stop-opacity="1" stop-color="rgb(90.434265%, 70.834351%, 19.509888%)" offset="0.332031"/><stop stop-opacity="1" stop-color="rgb(90.750122%, 71.150208%, 19.622803%)" offset="0.335938"/><stop stop-opacity="1" stop-color="rgb(91.064453%, 71.464539%, 19.735718%)" offset="0.339844"/><stop stop-opacity="1" stop-color="rgb(91.38031%, 71.780396%, 19.848633%)" offset="0.34375"/><stop stop-opacity="1" stop-color="rgb(91.644287%, 72.044373%, 19.943237%)" offset="0.347656"/><stop stop-opacity="1" stop-color="rgb(91.908264%, 72.30835%, 20.039368%)" offset="0.351562"/><stop stop-opacity="1" stop-color="rgb(92.071533%, 72.471619%, 20.100403%)" offset="0.359375"/><stop stop-opacity="1" stop-color="rgb(92.398071%, 72.798157%, 20.220947%)" offset="0.367188"/><stop stop-opacity="1" stop-color="rgb(92.723083%, 73.123169%, 20.343018%)" offset="0.375"/><stop stop-opacity="1" stop-color="rgb(93.049622%, 73.449707%, 20.465088%)" offset="0.382813"/><stop stop-opacity="1" stop-color="rgb(93.37616%, 73.776245%, 20.585632%)" offset="0.390625"/><stop stop-opacity="1" stop-color="rgb(93.702698%, 74.102783%, 20.707703%)" offset="0.398438"/><stop stop-opacity="1" stop-color="rgb(94.02771%, 74.427795%, 20.828247%)" offset="0.40625"/><stop stop-opacity="1" stop-color="rgb(94.354248%, 74.754333%, 20.950317%)" offset="0.414062"/><stop stop-opacity="1" stop-color="rgb(94.680786%, 75.080872%, 21.070862%)" offset="0.421875"/><stop stop-opacity="1" stop-color="rgb(95.007324%, 75.40741%, 21.192932%)" offset="0.429688"/><stop stop-opacity="1" stop-color="rgb(95.332336%, 75.732422%, 21.313477%)" offset="0.4375"/><stop stop-opacity="1" stop-color="rgb(95.658875%, 76.05896%, 21.435547%)" offset="0.445312"/><stop stop-opacity="1" stop-color="rgb(95.97168%, 76.371765%, 21.551514%)" offset="0.453125"/><stop stop-opacity="1" stop-color="rgb(96.266174%, 76.66626%, 21.64917%)" offset="0.46875"/><stop stop-opacity="1" stop-color="rgb(96.557617%, 76.957703%, 21.734619%)" offset="0.484375"/><stop stop-opacity="1" stop-color="rgb(96.847534%, 77.24762%, 21.821594%)" offset="0.5"/><stop stop-opacity="1" stop-color="rgb(97.138977%, 77.539062%, 21.907043%)" offset="0.515625"/><stop stop-opacity="1" stop-color="rgb(97.43042%, 77.830505%, 21.994019%)" offset="0.53125"/><stop stop-opacity="1" stop-color="rgb(97.720337%, 78.120422%, 22.079468%)" offset="0.546875"/><stop stop-opacity="1" stop-color="rgb(98.01178%, 78.411865%, 22.166443%)" offset="0.5625"/><stop stop-opacity="1" stop-color="rgb(98.303223%, 78.703308%, 22.251892%)" offset="0.578125"/><stop stop-opacity="1" stop-color="rgb(98.59314%, 78.993225%, 22.338867%)" offset="0.59375"/><stop stop-opacity="1" stop-color="rgb(98.797607%, 79.197693%, 22.399902%)" offset="0.625"/><stop stop-opacity="1" stop-color="rgb(98.979187%, 79.379272%, 22.465515%)" offset="0.75"/><stop stop-opacity="1" stop-color="rgb(99.226379%, 79.626465%, 22.558594%)" offset="0.875"/><stop stop-opacity="1" stop-color="rgb(99.475098%, 79.875183%, 22.651672%)" offset="1"/></linearGradient></defs><g clip-path="url(#7b95206a99)"><path fill="#afc1d0" d="M 235.652344 258.972656 L 235.652344 112.722656 L 273.453125 112.722656 L 273.453125 226.085938 L 332.347656 226.085938 L 332.347656 258.972656 Z M 235.652344 258.972656 " fill-opacity="1" fill-rule="nonzero"/></g><g clip-path="url(#c4e6106f2e)"><path fill="url(#a71aa37eca)" d="M 273.308594 112.722656 L 273.308594 258.972656 L 273.882812 258.972656 L 273.882812 112.722656 Z M 273.308594 112.722656 " fill-rule="nonzero"/></g><g clip-path="url(#faa476412c)"><path fill="#afc1d0" d="M 117.5 261.972656 L 110.105469 240.496094 L 51.144531 240.496094 L 43.75 261.972656 L 0.0234375 261.972656 L 56.304688 112.722656 L 104.722656 112.722656 L 161.226562 261.972656 Z M 80.503906 150.769531 L 61.441406 206.933594 L 99.566406 206.933594 Z M 80.503906 150.769531 " fill-opacity="1" fill-rule="nonzero"/></g><g clip-path="url(#b2be608bdf)"><g clip-path="url(#2200251bb0)"><path fill="url(#9f9c472ada)" d="M 80.039062 112.722656 L 80.039062 261.972656 L 160.984375 261.972656 L 160.984375 112.722656 Z M 80.039062 112.722656 " fill-rule="nonzero"/></g></g><g fill="#f3f6fa" fill-opacity="1"><g transform="translate(173.189772, 254.8524)"><g><path d="M 10.140625 -7.640625 L 10.140625 -12.84375 L 11.640625 -12.84375 L 11.640625 0 L 10.140625 0 L 10.140625 -6.359375 L 3.453125 -6.359375 L 3.453125 0 L 1.9375 0 L 1.9375 -12.84375 L 3.453125 -12.84375 L 3.453125 -7.640625 Z M 10.140625 -7.640625 "/></g></g></g><g fill="#f3f6fa" fill-opacity="1"><g transform="translate(188.568809, 254.8524)"><g><path d="M 6.625 0.1875 C 5.050781 0.1875 3.859375 -0.210938 3.046875 -1.015625 C 2.242188 -1.816406 1.84375 -3.003906 1.84375 -4.578125 L 1.84375 -12.84375 L 3.34375 -12.84375 L 3.34375 -4.59375 C 3.34375 -3.46875 3.613281 -2.625 4.15625 -2.0625 C 4.695312 -1.5 5.519531 -1.21875 6.625 -1.21875 C 8.820312 -1.21875 9.921875 -2.34375 9.921875 -4.59375 L 9.921875 -12.84375 L 11.421875 -12.84375 L 11.421875 -4.578125 C 11.421875 -3.003906 11.015625 -1.816406 10.203125 -1.015625 C 9.390625 -0.210938 8.195312 0.1875 6.625 0.1875 Z M 6.625 0.1875 "/></g></g></g><g fill="#f3f6fa" fill-opacity="1"><g transform="translate(203.6053, 254.8524)"><g><path d="M 1.9375 0 L 1.9375 -12.84375 L 6.8125 -12.84375 C 7.601562 -12.84375 8.273438 -12.71875 8.828125 -12.46875 C 9.378906 -12.21875 9.789062 -11.859375 10.0625 -11.390625 C 10.34375 -10.929688 10.484375 -10.378906 10.484375 -9.734375 C 10.484375 -9.171875 10.332031 -8.664062 10.03125 -8.21875 C 9.726562 -7.769531 9.296875 -7.414062 8.734375 -7.15625 L 8.734375 -6.984375 C 9.585938 -6.765625 10.234375 -6.378906 10.671875 -5.828125 C 11.117188 -5.273438 11.34375 -4.578125 11.34375 -3.734375 C 11.34375 -2.535156 10.992188 -1.613281 10.296875 -0.96875 C 9.597656 -0.320312 8.5625 0 7.1875 0 Z M 6.734375 -7.453125 C 7.453125 -7.453125 8.003906 -7.632812 8.390625 -8 C 8.785156 -8.375 8.984375 -8.890625 8.984375 -9.546875 C 8.984375 -10.234375 8.789062 -10.75 8.40625 -11.09375 C 8.03125 -11.4375 7.472656 -11.609375 6.734375 -11.609375 L 3.453125 -11.609375 L 3.453125 -7.453125 Z M 7.0625 -1.25 C 8.894531 -1.25 9.8125 -2.078125 9.8125 -3.734375 C 9.8125 -5.378906 8.894531 -6.203125 7.0625 -6.203125 L 3.453125 -6.203125 L 3.453125 -1.25 Z M 7.0625 -1.25 "/></g></g></g><g fill="#f3f6fa" fill-opacity="1"><g transform="translate(304.284594, 254.8524)"><g><path d="M 6.546875 -12.84375 C 7.421875 -12.84375 8.175781 -12.6875 8.8125 -12.375 C 9.445312 -12.0625 9.929688 -11.609375 10.265625 -11.015625 C 10.597656 -10.429688 10.765625 -9.738281 10.765625 -8.9375 C 10.765625 -8.144531 10.597656 -7.453125 10.265625 -6.859375 C 9.929688 -6.273438 9.445312 -5.820312 8.8125 -5.5 C 8.175781 -5.1875 7.421875 -5.03125 6.546875 -5.03125 L 3.453125 -5.03125 L 3.453125 0 L 1.9375 0 L 1.9375 -12.84375 Z M 6.5 -6.3125 C 8.28125 -6.3125 9.171875 -7.1875 9.171875 -8.9375 C 9.171875 -10.6875 8.28125 -11.5625 6.5 -11.5625 L 3.453125 -11.5625 L 3.453125 -6.3125 Z M 6.5 -6.3125 "/></g></g></g><g fill="#f3f6fa" fill-opacity="1"><g transform="translate(317.792784, 254.8524)"><g><path d="M 1.9375 0 L 1.9375 -12.84375 L 6.609375 -12.84375 C 7.472656 -12.84375 8.195312 -12.703125 8.78125 -12.421875 C 9.363281 -12.140625 9.800781 -11.738281 10.09375 -11.21875 C 10.382812 -10.695312 10.53125 -10.082031 10.53125 -9.375 C 10.53125 -8.582031 10.332031 -7.925781 9.9375 -7.40625 C 9.539062 -6.882812 8.921875 -6.492188 8.078125 -6.234375 L 8.078125 -6.0625 C 8.492188 -5.894531 8.832031 -5.632812 9.09375 -5.28125 C 9.363281 -4.925781 9.609375 -4.398438 9.828125 -3.703125 L 11.015625 0 L 9.453125 0 L 8.171875 -3.921875 C 8.023438 -4.390625 7.847656 -4.753906 7.640625 -5.015625 C 7.441406 -5.285156 7.191406 -5.476562 6.890625 -5.59375 C 6.585938 -5.707031 6.203125 -5.765625 5.734375 -5.765625 L 3.453125 -5.765625 L 3.453125 0 Z M 6.578125 -7.046875 C 7.378906 -7.046875 7.972656 -7.234375 8.359375 -7.609375 C 8.753906 -7.984375 8.953125 -8.550781 8.953125 -9.3125 C 8.953125 -10.070312 8.753906 -10.632812 8.359375 -11 C 7.972656 -11.375 7.378906 -11.5625 6.578125 -11.5625 L 3.453125 -11.5625 L 3.453125 -7.046875 Z M 6.578125 -7.046875 "/></g></g></g><g fill="#f3f6fa" fill-opacity="1"><g transform="translate(331.485418, 254.8524)"><g><path d="M 7.046875 0.1875 C 5.929688 0.1875 4.941406 -0.0507812 4.078125 -0.53125 C 3.210938 -1.007812 2.53125 -1.742188 2.03125 -2.734375 C 1.53125 -3.722656 1.28125 -4.953125 1.28125 -6.421875 C 1.28125 -7.890625 1.53125 -9.117188 2.03125 -10.109375 C 2.53125 -11.097656 3.210938 -11.832031 4.078125 -12.3125 C 4.941406 -12.789062 5.929688 -13.03125 7.046875 -13.03125 C 8.160156 -13.03125 9.148438 -12.789062 10.015625 -12.3125 C 10.890625 -11.832031 11.570312 -11.097656 12.0625 -10.109375 C 12.5625 -9.117188 12.8125 -7.890625 12.8125 -6.421875 C 12.8125 -4.953125 12.5625 -3.722656 12.0625 -2.734375 C 11.570312 -1.742188 10.890625 -1.007812 10.015625 -0.53125 C 9.148438 -0.0507812 8.160156 0.1875 7.046875 0.1875 Z M 7.046875 -1.21875 C 8.378906 -1.21875 9.40625 -1.632812 10.125 -2.46875 C 10.84375 -3.300781 11.203125 -4.617188 11.203125 -6.421875 C 11.203125 -8.222656 10.84375 -9.539062 10.125 -10.375 C 9.40625 -11.21875 8.378906 -11.640625 7.046875 -11.640625 C 4.285156 -11.640625 2.90625 -9.898438 2.90625 -6.421875 C 2.90625 -2.953125 4.285156 -1.21875 7.046875 -1.21875 Z M 7.046875 -1.21875 "/></g></g></g></svg>