<svg xmlns="http://www.w3.org/2000/svg" xmlns:xlink="http://www.w3.org/1999/xlink" width="500" zoomAndPan="magnify" viewBox="0 0 375 374.999991" height="500" preserveAspectRatio="xMidYMid meet" version="1.0"><defs><g/></defs><g fill="#ffffff" fill-opacity="1"><g transform="translate(33.258734, 207.948707)"><g><path d="M 57.328125 -25.609375 C 57.398438 -24.085938 57.398438 -23.179688 57.328125 -22.890625 L 16.34375 -23 C 16.925781 -21.320312 17.984375 -19.722656 19.515625 -18.203125 C 22.347656 -15.515625 25.617188 -14.171875 29.328125 -14.171875 C 33.242188 -14.316406 36.507812 -15.695312 39.125 -18.3125 L 39.5625 -18.75 L 53.734375 -14.28125 C 50.609375 -9.40625 47.335938 -5.914062 43.921875 -3.8125 C 40.078125 -1.34375 35.25 -0.0703125 29.4375 0 C 21.726562 0.0703125 15.113281 -2.613281 9.59375 -8.0625 C 4.070312 -13.507812 1.273438 -20.125 1.203125 -27.90625 C 1.128906 -35.601562 3.816406 -42.210938 9.265625 -47.734375 C 14.710938 -53.265625 21.328125 -56.066406 29.109375 -56.140625 C 36.804688 -56.210938 43.414062 -53.519531 48.9375 -48.0625 C 54.457031 -42.613281 57.253906 -36.003906 57.328125 -28.234375 Z M 29.21875 -41.859375 C 25.363281 -41.859375 22.09375 -40.515625 19.40625 -37.828125 C 18.019531 -36.296875 17.035156 -34.769531 16.453125 -33.25 L 42.078125 -33.25 C 41.492188 -34.769531 40.472656 -36.332031 39.015625 -37.9375 C 36.253906 -40.550781 32.988281 -41.859375 29.21875 -41.859375 Z M 29.21875 -41.859375 "/></g></g></g><g fill="#ffffff" fill-opacity="1"><g transform="translate(91.792385, 207.948707)"><g><path d="M 68.125 -56.140625 L 42.078125 0 L 30.515625 0 L 3.265625 -56.140625 L 21.03125 -56.140625 L 36.296875 -24.75 L 50.46875 -56.140625 Z M 68.125 -56.140625 "/></g></g></g><g fill="#ffffff" fill-opacity="1"><g transform="translate(163.188182, 207.948707)"><g><path d="M 57.328125 -25.609375 C 57.398438 -24.085938 57.398438 -23.179688 57.328125 -22.890625 L 16.34375 -23 C 16.925781 -21.320312 17.984375 -19.722656 19.515625 -18.203125 C 22.347656 -15.515625 25.617188 -14.171875 29.328125 -14.171875 C 33.242188 -14.316406 36.507812 -15.695312 39.125 -18.3125 L 39.5625 -18.75 L 53.734375 -14.28125 C 50.609375 -9.40625 47.335938 -5.914062 43.921875 -3.8125 C 40.078125 -1.34375 35.25 -0.0703125 29.4375 0 C 21.726562 0.0703125 15.113281 -2.613281 9.59375 -8.0625 C 4.070312 -13.507812 1.273438 -20.125 1.203125 -27.90625 C 1.128906 -35.601562 3.816406 -42.210938 9.265625 -47.734375 C 14.710938 -53.265625 21.328125 -56.066406 29.109375 -56.140625 C 36.804688 -56.210938 43.414062 -53.519531 48.9375 -48.0625 C 54.457031 -42.613281 57.253906 -36.003906 57.328125 -28.234375 Z M 29.21875 -41.859375 C 25.363281 -41.859375 22.09375 -40.515625 19.40625 -37.828125 C 18.019531 -36.296875 17.035156 -34.769531 16.453125 -33.25 L 42.078125 -33.25 C 41.492188 -34.769531 40.472656 -36.332031 39.015625 -37.9375 C 36.253906 -40.550781 32.988281 -41.859375 29.21875 -41.859375 Z M 29.21875 -41.859375 "/></g></g></g><g fill="#ffffff" fill-opacity="1"><g transform="translate(221.721833, 207.948707)"><g><path d="M 31.171875 -55.921875 C 39.160156 -56.566406 45.773438 -54.492188 51.015625 -49.703125 C 56.609375 -44.546875 59.40625 -37.316406 59.40625 -28.015625 L 59.40625 0 L 45.234375 0 L 45.234375 -27.6875 L 45.125 -27.6875 L 45.125 -27.90625 C 45.125 -31.757812 43.78125 -35.03125 41.09375 -37.71875 C 38.40625 -40.40625 35.132812 -41.75 31.28125 -41.75 C 27.351562 -41.601562 24.082031 -40.222656 21.46875 -37.609375 C 18.707031 -34.847656 17.398438 -31.578125 17.546875 -27.796875 L 17.546875 -27.6875 L 17.4375 -27.6875 L 17.4375 0 L 2.1875 0 L 2.1875 -56.359375 L 17.4375 -56.359375 L 17.4375 -49.046875 C 20.851562 -53.117188 25.429688 -55.410156 31.171875 -55.921875 Z M 31.171875 -55.921875 "/></g></g></g><g fill="#ffffff" fill-opacity="1"><g transform="translate(283.307537, 207.948707)"><g><path d="M 29.109375 -56.140625 C 36.878906 -56.210938 43.488281 -53.519531 48.9375 -48.0625 C 54.457031 -42.539062 57.21875 -35.929688 57.21875 -28.234375 C 57.289062 -20.453125 54.601562 -13.835938 49.15625 -8.390625 C 43.707031 -2.867188 37.132812 -0.0703125 29.4375 0 C 21.65625 0.0703125 15.003906 -2.613281 9.484375 -8.0625 C 3.960938 -13.507812 1.203125 -20.125 1.203125 -27.90625 C 1.128906 -35.675781 3.816406 -42.285156 9.265625 -47.734375 C 14.710938 -53.265625 21.328125 -56.066406 29.109375 -56.140625 Z M 39.015625 -18.3125 C 41.710938 -21 43.0625 -24.269531 43.0625 -28.125 C 43.0625 -31.90625 41.675781 -35.175781 38.90625 -37.9375 C 36.144531 -40.550781 32.878906 -41.859375 29.109375 -41.859375 C 25.328125 -41.859375 22.09375 -40.515625 19.40625 -37.828125 C 16.71875 -34.992188 15.375 -31.722656 15.375 -28.015625 C 15.375 -24.234375 16.753906 -20.960938 19.515625 -18.203125 C 22.203125 -15.515625 25.472656 -14.171875 29.328125 -14.171875 C 33.242188 -14.316406 36.472656 -15.695312 39.015625 -18.3125 Z M 39.015625 -18.3125 "/></g></g></g></svg>